<svg xmlns="http://www.w3.org/2000/svg" xmlns:xlink="http://www.w3.org/1999/xlink" width="566" zoomAndPan="magnify" viewBox="0 0 425.25 283.500005" height="377" preserveAspectRatio="xMidYMid meet" version="1.0"><defs><g/><clipPath id="63c4fb3952"><path d="M 0 0 L 424.5 0 L 424.5 283 L 0 283 Z M 0 0 " clip-rule="nonzero"/></clipPath><clipPath id="898d42e6c7"><path d="M 160.179688 185 L 360 185 L 360 207 L 160.179688 207 Z M 160.179688 185 " clip-rule="nonzero"/></clipPath></defs><g clip-path="url(#63c4fb3952)"><path fill="#ffffff" d="M 0 0 L 424.5 0 L 424.5 283 L 0 283 Z M 0 0 " fill-opacity="1" fill-rule="nonzero"/><path fill="#ffffff" d="M 0 0 L 424.5 0 L 424.5 283 L 0 283 Z M 0 0 " fill-opacity="1" fill-rule="nonzero"/></g><g clip-path="url(#898d42e6c7)"><path fill="#000000" d="M 160.179688 185.589844 C 161.761719 186.695312 161.542969 187.320312 162.535156 187.652344 C 168.273438 189.453125 175.742188 194.640625 178.652344 196.519531 C 226.113281 226.6875 280.53125 175.839844 357.910156 198.320312 C 358.574219 198.503906 360.558594 198.0625 359.382812 196.371094 C 348.601562 191.808594 336.902344 187.578125 312.839844 187.171875 C 286.308594 186.695312 234.027344 203.472656 211.25 202.882812 C 181.703125 202.109375 171.476562 184.375 160.21875 185.628906 Z M 160.179688 185.589844 " fill-opacity="1" fill-rule="evenodd"/></g><g fill="#000000" fill-opacity="1"><g transform="translate(41.371203, 148.228687)"><g><path d="M 3.644531 -16.324219 C 4.402344 -16.777344 5.238281 -17.234375 5.996094 -17.6875 C 10.703125 -20.421875 15.792969 -21.5625 21.257812 -21.183594 C 23.460938 -21.03125 25.660156 -20.726562 27.863281 -20.117188 C 33.023438 -18.675781 37.808594 -16.09375 42.820312 -14.195312 C 43.804688 -13.816406 43.273438 -13.363281 42.972656 -12.90625 C 38.945312 -7.59375 34.847656 -2.355469 30.0625 2.277344 C 27.40625 4.859375 24.675781 7.363281 21.105469 8.65625 C 16.09375 10.554688 13.742188 10.324219 11.085938 4.25 C 9.566406 0.988281 9.488281 -2.503906 9.945312 -6.074219 C 10.019531 -6.679688 9.945312 -7.136719 9.261719 -7.363281 C 8.65625 -7.59375 8.046875 -7.515625 7.667969 -6.832031 C 7.363281 -6.226562 7.136719 -5.617188 7.0625 -5.011719 C 6.679688 -1.59375 7.0625 1.746094 8.578125 4.933594 C 11.464844 10.855469 17.234375 12.90625 23.230469 10.097656 C 26.117188 8.730469 28.46875 6.832031 30.746094 4.632812 C 35.984375 -0.457031 40.3125 -6.300781 44.71875 -12.070312 C 45.324219 -12.832031 45.78125 -12.980469 46.765625 -12.679688 C 53.828125 -10.324219 60.8125 -7.820312 68.328125 -7.136719 C 69.316406 -7.0625 69.164062 -6.605469 68.9375 -5.921875 C 67.722656 -2.125 66.507812 1.59375 65.441406 5.464844 C 64.609375 8.273438 63.847656 11.160156 63.925781 14.195312 C 64 15.410156 64.53125 16.398438 65.59375 17.007812 C 66.886719 17.765625 67.644531 17.308594 67.570312 15.792969 C 67.492188 14.273438 67.796875 12.753906 68.101562 11.234375 C 69.238281 5.921875 71.0625 0.757812 72.808594 -4.402344 C 73.566406 -6.757812 73.566406 -6.757812 76.070312 -6.910156 C 76.605469 -6.910156 77.210938 -6.910156 77.742188 -6.984375 C 84.121094 -7.210938 90.117188 -8.808594 95.886719 -11.3125 C 96.191406 -11.386719 96.644531 -11.386719 96.570312 -11.917969 C 96.417969 -12.300781 96.113281 -12.449219 95.8125 -12.527344 C 95.433594 -12.527344 95.128906 -12.449219 94.824219 -12.375 C 93.609375 -11.996094 92.472656 -11.691406 91.257812 -11.3125 C 86.167969 -9.792969 81.082031 -8.503906 75.691406 -8.578125 C 74.175781 -8.578125 74.175781 -8.578125 74.707031 -10.019531 C 79.261719 -22.699219 84.042969 -35.378906 88.902344 -47.980469 C 92.925781 -58.382812 97.328125 -68.707031 100.671875 -79.488281 C 101.503906 -82.375 102.339844 -85.257812 102.265625 -88.296875 C 102.265625 -89.660156 101.886719 -90.800781 100.519531 -91.40625 C 99.152344 -92.015625 98.089844 -91.484375 97.253906 -90.496094 C 95.964844 -89.207031 94.671875 -87.839844 93.609375 -86.398438 C 82.980469 -72.503906 72.65625 -58.308594 63.394531 -43.351562 C 57.773438 -34.164062 51.855469 -25.128906 45.476562 -16.398438 C 44.792969 -15.335938 44.1875 -15.183594 43.046875 -15.714844 C 40.617188 -16.855469 38.1875 -17.917969 35.757812 -18.980469 C 31.277344 -20.878906 26.875 -22.929688 22.015625 -23.609375 C 15.5625 -24.445312 9.414062 -23.609375 4.023438 -19.585938 C 3.417969 -19.132812 2.734375 -18.675781 2.277344 -17.992188 C 1.898438 -17.539062 1.746094 -17.082031 2.203125 -16.625 C 2.65625 -16.171875 3.113281 -16.019531 3.644531 -16.324219 Z M 47.90625 -16.398438 C 55.800781 -27.332031 62.785156 -38.871094 70 -50.183594 C 77.96875 -62.710938 86.699219 -74.628906 95.886719 -86.167969 C 96.949219 -87.460938 98.011719 -88.828125 99.683594 -89.964844 C 99.757812 -87.382812 99.226562 -85.257812 98.621094 -83.058594 C 95.660156 -73.566406 91.9375 -64.378906 88.144531 -55.117188 C 82.070312 -40.085938 75.617188 -25.128906 70.300781 -9.792969 C 70 -8.957031 69.542969 -8.882812 68.785156 -8.957031 C 61.875 -9.414062 55.269531 -11.386719 48.816406 -13.589844 C 46.539062 -14.347656 46.464844 -14.347656 47.90625 -16.398438 Z M 47.90625 -16.398438 "/></g></g></g><g fill="#000000" fill-opacity="1"><g transform="translate(136.874179, 148.228687)"><g><path d="M -5.542969 24.066406 C -3.71875 24.21875 0 22.625 1.519531 21.03125 C 1.746094 20.800781 2.277344 20.5 1.898438 20.117188 C 1.519531 19.664062 1.0625 19.890625 0.757812 20.195312 C -0.457031 21.257812 -1.820312 21.941406 -3.265625 22.546875 C -6.832031 24.144531 -8.882812 22.777344 -8.808594 18.828125 C -8.808594 16.171875 -7.894531 13.664062 -6.757812 11.234375 C -4.480469 6.378906 -1.441406 2.050781 1.441406 -2.355469 C 2.429688 -3.949219 3.339844 -5.542969 3.871094 -7.363281 C 4.175781 -8.351562 4.554688 -9.640625 3.796875 -10.324219 C 2.203125 -11.917969 3.035156 -12.980469 4.328125 -14.121094 C 4.632812 -14.347656 4.78125 -14.804688 4.933594 -15.261719 C 5.085938 -15.714844 5.085938 -16.171875 4.707031 -16.476562 C 3.949219 -17.386719 2.960938 -17.839844 1.746094 -17.613281 C 0.304688 -17.308594 -0.757812 -16.476562 -1.140625 -14.957031 C -1.441406 -13.742188 -1.0625 -12.449219 -0.0742188 -11.769531 C 0.757812 -11.234375 0.835938 -10.628906 0.683594 -9.871094 C 0.53125 -8.425781 0 -7.136719 -0.757812 -5.921875 C -1.972656 -3.949219 -3.1875 -1.972656 -4.402344 -0.0742188 C -6.605469 3.339844 -8.65625 6.757812 -10.097656 10.476562 C -11.234375 13.664062 -11.691406 16.855469 -10.628906 20.195312 C -9.945312 22.320312 -7.742188 23.992188 -5.542969 24.066406 Z M -5.542969 24.066406 "/></g></g></g><g fill="#000000" fill-opacity="1"><g transform="translate(156.992057, 148.228687)"><g><path d="M 21.332031 -20.347656 C 20.421875 -19.511719 19.664062 -18.675781 18.753906 -17.917969 C 13.4375 -12.90625 8.351562 -7.742188 3.417969 -2.355469 C 1.441406 -0.0742188 -0.53125 2.203125 -2.886719 4.101562 C -3.339844 4.480469 -3.71875 5.011719 -4.554688 4.859375 C -4.632812 3.796875 -4.328125 2.808594 -3.949219 1.898438 C -2.65625 -1.820312 -0.757812 -5.238281 1.367188 -8.578125 C 2.355469 -10.097656 3.339844 -11.617188 4.328125 -13.210938 C 4.554688 -13.589844 4.933594 -13.96875 4.554688 -14.425781 C 3.949219 -15.261719 2.65625 -15.488281 1.820312 -14.878906 C 1.367188 -14.5 0.910156 -14.046875 0.53125 -13.515625 C -1.214844 -11.234375 -2.734375 -8.882812 -3.949219 -6.300781 C -5.464844 -3.339844 -6.527344 -0.152344 -6.910156 3.1875 C -7.0625 4.402344 -6.984375 5.464844 -5.847656 6.148438 C -4.632812 6.832031 -3.566406 6.605469 -2.582031 5.847656 C -1.441406 5.011719 -0.378906 4.101562 0.605469 3.035156 C 3.796875 -0.457031 6.910156 -3.949219 10.171875 -7.363281 C 11.917969 -9.1875 13.664062 -11.085938 15.640625 -12.753906 C 15.714844 -12.601562 15.792969 -12.527344 15.941406 -12.449219 C 15.5625 -11.84375 15.261719 -11.234375 14.878906 -10.628906 C 11.160156 -4.632812 7.894531 1.59375 4.933594 7.972656 C 2.960938 12.148438 1.367188 16.476562 -0.53125 20.574219 C -2.429688 24.75 -4.328125 28.851562 -6.226562 32.949219 C -6.832031 34.238281 -6.910156 34.316406 -8.351562 34.011719 C -12.832031 32.949219 -17.386719 32.34375 -21.941406 31.734375 C -27.9375 31.050781 -34.011719 30.445312 -40.085938 30.671875 C -49.347656 31.050781 -58.230469 32.875 -66.507812 37.277344 C -71.515625 39.933594 -75.539062 43.578125 -78.351562 48.511719 C -82.601562 56.105469 -81.992188 65.824219 -76.527344 72.578125 C -70.984375 79.261719 -63.621094 82.523438 -54.964844 82.296875 C -43.578125 82.070312 -33.707031 77.742188 -25.585938 69.695312 C -21.332031 65.519531 -17.765625 60.8125 -14.425781 55.878906 C -10.628906 50.335938 -7.363281 44.488281 -4.328125 38.566406 C -3.339844 36.746094 -3.417969 36.746094 -1.289062 37.199219 C 1.898438 37.960938 5.085938 38.644531 8.273438 39.402344 C 8.730469 39.480469 9.109375 39.707031 9.488281 39.554688 C 9.871094 39.480469 10.171875 39.175781 10.171875 38.796875 C 10.171875 38.492188 9.871094 38.414062 9.566406 38.339844 C 9.109375 38.1875 8.65625 38.035156 8.199219 37.960938 C 5.164062 37.199219 2.125 36.519531 -0.835938 35.757812 C -2.582031 35.378906 -2.582031 35.378906 -1.746094 33.785156 C -1.0625 32.417969 -0.378906 31.128906 0.304688 29.835938 C 3.566406 22.625 6.910156 15.410156 10.097656 8.125 C 13.96875 -0.683594 18.902344 -8.957031 23.839844 -17.308594 C 24.144531 -17.765625 24.597656 -18.222656 24.675781 -18.753906 C 24.824219 -19.359375 22.394531 -21.257812 21.332031 -20.347656 Z M -8.125 36.898438 C -12.601562 46.3125 -17.917969 55.195312 -24.144531 63.46875 C -28.46875 69.085938 -33.480469 73.792969 -40.011719 76.90625 C -45.171875 79.414062 -50.640625 80.855469 -57.09375 80.929688 C -65.0625 80.550781 -71.820312 76.984375 -75.769531 69.238281 C -80.019531 61.039062 -78.882812 53.144531 -73.109375 45.855469 C -70.074219 42.058594 -66.125 39.402344 -61.800781 37.429688 C -54.28125 33.9375 -46.234375 32.417969 -38.035156 32.34375 C -31.507812 32.191406 -25.128906 32.875 -18.675781 33.785156 C -15.335938 34.238281 -12.070312 34.769531 -8.808594 35.53125 C -7.667969 35.835938 -7.667969 35.835938 -8.125 36.898438 Z M -8.125 36.898438 "/></g></g></g><g fill="#000000" fill-opacity="1"><g transform="translate(187.814166, 148.228687)"><g><path d="M 5.3125 -2.429688 C 5.464844 -0.835938 5.695312 0.757812 6.453125 2.203125 C 9.035156 7.0625 14.195312 8.125 18.523438 6.300781 C 27.253906 2.582031 43.652344 -11.769531 53.066406 -12.90625 C 52.992188 -13.210938 52.992188 -13.363281 52.917969 -13.4375 C 50.335938 -16.324219 27.027344 -0.304688 19.359375 3.417969 C 17.386719 4.402344 15.410156 5.238281 13.132812 5.238281 C 11.996094 5.164062 11.234375 4.707031 10.78125 3.644531 C 10.324219 2.582031 10.097656 1.441406 10.097656 0.226562 C 10.019531 -2.503906 10.554688 -5.085938 11.617188 -7.667969 C 12.449219 -9.792969 13.742188 -11.691406 14.878906 -13.664062 C 15.714844 -15.261719 15.5625 -15.792969 13.96875 -16.550781 C 13.515625 -16.777344 13.058594 -17.082031 12.601562 -16.929688 C 11.769531 -16.625 11.3125 -17.082031 10.703125 -17.460938 C 8.425781 -18.753906 6.148438 -19.054688 3.871094 -17.613281 C -1.59375 -14.195312 -4.101562 -9.035156 -3.949219 -2.734375 C -3.949219 -0.605469 -1.519531 0.605469 0.457031 -0.304688 C 1.214844 -0.683594 1.898438 -1.214844 2.429688 -1.820312 C 3.265625 -2.582031 4.101562 -3.417969 5.011719 -4.328125 C 5.3125 -3.566406 5.238281 -2.960938 5.3125 -2.429688 Z M 1.0625 -3.339844 C 0.53125 -2.886719 -0.0742188 -2.503906 -0.910156 -1.898438 C -0.910156 -3.566406 -0.605469 -4.78125 -0.152344 -5.847656 C 1.214844 -9.339844 3.1875 -12.300781 6.074219 -14.730469 C 6.605469 -15.183594 7.289062 -15.488281 7.894531 -15.867188 C 8.273438 -16.09375 8.808594 -16.171875 9.109375 -15.640625 C 9.414062 -15.183594 9.71875 -14.804688 9.339844 -14.195312 C 6.910156 -10.324219 4.554688 -6.378906 1.0625 -3.339844 Z M 1.0625 -3.339844 "/></g></g></g><g fill="#000000" fill-opacity="1"><g transform="translate(239.057821, 148.228687)"><g><path d="M 17.234375 -55.34375 L 17.75 -54.53125 C 16.519531 -49.664062 14.347656 -43.75 11.234375 -36.78125 L 6.15625 -36.78125 C 7.882812 -44.257812 9.117188 -50.445312 9.859375 -55.34375 Z M 16.796875 -47.234375 Z M 16.609375 -68.0625 Z M 16.609375 -68.0625 "/></g></g></g><g fill="#000000" fill-opacity="1"><g transform="translate(262.707593, 148.228687)"><g><path d="M 8.957031 7.667969 C 8.730469 8.199219 8.273438 8.808594 8.808594 9.339844 C 9.339844 9.945312 10.019531 9.792969 10.78125 9.640625 C 11.3125 9.566406 11.691406 9.1875 11.996094 8.808594 C 13.210938 7.289062 14.425781 5.847656 15.03125 4.023438 C 15.261719 3.339844 15.714844 2.808594 16.171875 2.277344 C 19.890625 -1.289062 23.609375 -4.859375 27.863281 -7.894531 C 28.167969 -8.125 28.699219 -8.273438 28.46875 -8.808594 C 28.242188 -9.261719 27.636719 -9.261719 27.179688 -9.109375 C 26.722656 -8.882812 26.269531 -8.65625 25.8125 -8.351562 C 24.144531 -7.289062 22.546875 -6.074219 21.03125 -4.78125 C 19.4375 -3.417969 17.839844 -2.050781 16.09375 -0.53125 C 14.425781 -3.796875 12.679688 -4.707031 9.1875 -4.328125 C 8.65625 -4.328125 8.125 -4.175781 7.59375 -4.101562 C 6.679688 -3.796875 5.847656 -3.566406 4.933594 -3.265625 C 3.644531 -2.886719 2.355469 -2.429688 1.0625 -2.050781 C 0 -1.820312 -0.226562 -2.125 -0.304688 -3.113281 C -0.304688 -4.101562 -0.0742188 -5.011719 0.226562 -5.847656 C 1.289062 -8.65625 2.582031 -11.3125 4.328125 -13.664062 C 5.921875 -15.792969 7.59375 -17.765625 10.097656 -18.980469 C 11.769531 -19.738281 12.527344 -19.511719 13.4375 -17.917969 C 13.96875 -16.855469 14.046875 -15.714844 13.894531 -14.5 C 13.742188 -13.210938 14.5 -12.527344 15.640625 -12.753906 C 16.398438 -12.90625 16.703125 -13.515625 16.777344 -14.121094 C 17.308594 -17.765625 16.476562 -20.421875 12.300781 -21.410156 C 9.871094 -21.941406 7.515625 -21.410156 5.390625 -20.195312 C 3.339844 -18.980469 1.671875 -17.308594 0.226562 -15.410156 C -1.898438 -12.449219 -3.492188 -9.261719 -4.554688 -5.847656 C -5.390625 -2.960938 -4.175781 -0.988281 -1.289062 -0.304688 C -1.140625 -0.304688 -0.910156 -0.304688 -0.757812 -0.226562 C 1.140625 0.152344 2.960938 -0.226562 4.78125 -0.835938 C 6.527344 -1.441406 8.351562 -1.898438 10.25 -2.355469 C 10.933594 -2.503906 11.464844 -2.277344 11.84375 -1.59375 C 12.90625 0.152344 12.679688 2.886719 11.160156 4.328125 C 10.097656 5.3125 9.414062 6.378906 8.957031 7.667969 Z M 8.957031 7.667969 "/></g></g></g><g fill="#000000" fill-opacity="1"><g transform="translate(220.184724, 184.480062)"><g><path d="M 14.390625 -21.847656 L 14.390625 -11.671875 L 4.148438 -11.671875 L 4.148438 -21.847656 L 1.671875 -21.847656 L 1.671875 0.0351562 L 4.148438 0.0351562 L 4.148438 -11.117188 L 14.390625 -11.117188 L 14.390625 0.0351562 L 16.898438 0.0351562 L 16.898438 -21.847656 Z M 14.390625 -21.847656 "/></g></g></g><g fill="#000000" fill-opacity="1"><g transform="translate(250.988535, 184.480062)"><g><path d="M 13.378906 -22.265625 C 7.109375 -22.265625 1.394531 -18.921875 1.394531 -10.835938 C 1.394531 -1.535156 8.988281 0.660156 13.378906 0.660156 C 17.738281 0.660156 25.367188 -1.535156 25.367188 -10.835938 C 25.367188 -18.921875 19.617188 -22.265625 13.378906 -22.265625 Z M 13.378906 0.0703125 C 9.441406 0.0703125 3.9375 -1.671875 3.9375 -10.835938 C 3.9375 -19.863281 10 -21.707031 13.378906 -21.707031 C 16.761719 -21.707031 22.824219 -19.863281 22.824219 -10.835938 C 22.824219 -1.671875 17.285156 0.0703125 13.378906 0.0703125 Z M 13.378906 0.0703125 "/></g></g></g><g fill="#000000" fill-opacity="1"><g transform="translate(290.050386, 184.480062)"><g><path d="M 23.871094 -22.265625 L 23.800781 -22.265625 L 14.007812 -3.726562 L 4.355469 -22.265625 L 4.25 -22.265625 L 1.253906 0.0351562 L 1.8125 0.0351562 L 4.148438 -17.25 L 12.824219 -0.558594 L 12.960938 -0.558594 L 21.917969 -17.527344 L 23.972656 0.0351562 L 26.484375 0.0351562 Z M 23.871094 -22.265625 "/></g></g></g><g fill="#000000" fill-opacity="1"><g transform="translate(330.053026, 184.480062)"><g><path d="M 12.753906 -21.289062 L 12.753906 -21.847656 L 1.671875 -21.847656 L 1.671875 0.0351562 L 12.753906 0.0351562 L 12.753906 -0.523438 L 4.148438 -0.523438 L 4.148438 -11.117188 L 11.8125 -11.117188 L 11.8125 -11.671875 L 4.148438 -11.671875 L 4.148438 -21.289062 Z M 12.753906 -21.289062 "/></g></g></g></svg>